<svg id="visual" viewBox="0 0 900 300" width="900" height="300" xmlns="http://www.w3.org/2000/svg" xmlns:xlink="http://www.w3.org/1999/xlink" version="1.1"><path d="M0 151L21.5 151.8C43 152.7 86 154.3 128.8 161.5C171.7 168.7 214.3 181.3 257.2 179.5C300 177.7 343 161.3 385.8 152.8C428.7 144.3 471.3 143.7 514.2 148.8C557 154 600 165 642.8 167.5C685.7 170 728.3 164 771.2 161.7C814 159.3 857 160.7 878.5 161.3L900 162L900 301L878.5 301C857 301 814 301 771.2 301C728.3 301 685.7 301 642.8 301C600 301 557 301 514.2 301C471.3 301 428.7 301 385.8 301C343 301 300 301 257.2 301C214.3 301 171.7 301 128.8 301C86 301 43 301 21.5 301L0 301Z" fill="#829095"></path><path d="M0 157L21.5 165.8C43 174.7 86 192.3 128.8 193.8C171.7 195.3 214.3 180.7 257.2 177.7C300 174.7 343 183.3 385.8 182C428.7 180.7 471.3 169.3 514.2 168.3C557 167.3 600 176.7 642.8 176.5C685.7 176.3 728.3 166.7 771.2 168C814 169.3 857 181.7 878.5 187.8L900 194L900 301L878.5 301C857 301 814 301 771.2 301C728.3 301 685.7 301 642.8 301C600 301 557 301 514.2 301C471.3 301 428.7 301 385.8 301C343 301 300 301 257.2 301C214.3 301 171.7 301 128.8 301C86 301 43 301 21.5 301L0 301Z" fill="#697f81"></path><path d="M0 218L21.5 216.3C43 214.7 86 211.3 128.8 212.3C171.7 213.3 214.3 218.7 257.2 219.3C300 220 343 216 385.8 216.3C428.7 216.7 471.3 221.3 514.2 223.2C557 225 600 224 642.8 223.5C685.7 223 728.3 223 771.2 222.8C814 222.7 857 222.3 878.5 222.2L900 222L900 301L878.5 301C857 301 814 301 771.2 301C728.3 301 685.7 301 642.8 301C600 301 557 301 514.2 301C471.3 301 428.7 301 385.8 301C343 301 300 301 257.2 301C214.3 301 171.7 301 128.8 301C86 301 43 301 21.5 301L0 301Z" fill="#546e6a"></path><path d="M0 256L21.5 250.3C43 244.7 86 233.3 128.8 229.7C171.7 226 214.3 230 257.2 232C300 234 343 234 385.8 233.7C428.7 233.3 471.3 232.7 514.2 234.7C557 236.7 600 241.3 642.8 241.2C685.7 241 728.3 236 771.2 237.8C814 239.7 857 248.3 878.5 252.7L900 257L900 301L878.5 301C857 301 814 301 771.2 301C728.3 301 685.7 301 642.8 301C600 301 557 301 514.2 301C471.3 301 428.7 301 385.8 301C343 301 300 301 257.2 301C214.3 301 171.7 301 128.8 301C86 301 43 301 21.5 301L0 301Z" fill="#435d51"></path><path d="M0 251L21.5 250.8C43 250.7 86 250.3 128.8 254.2C171.7 258 214.3 266 257.2 269.5C300 273 343 272 385.8 272.5C428.7 273 471.3 275 514.2 271.2C557 267.3 600 257.7 642.8 255.8C685.7 254 728.3 260 771.2 264.8C814 269.7 857 273.3 878.5 275.2L900 277L900 301L878.5 301C857 301 814 301 771.2 301C728.3 301 685.7 301 642.8 301C600 301 557 301 514.2 301C471.3 301 428.7 301 385.8 301C343 301 300 301 257.2 301C214.3 301 171.7 301 128.8 301C86 301 43 301 21.5 301L0 301Z" fill="#384b38"></path></svg>